<svg width="67" height="67" viewBox="0 0 67 67" fill="none" xmlns="http://www.w3.org/2000/svg">
<path fill-rule="evenodd" clip-rule="evenodd" d="M35.3794 66.9482C34.7573 66.9826 34.1307 67 33.5 67C32.8693 67 32.2427 66.9826 31.6206 66.9482L31.731 64.9512C32.3164 64.9836 32.9062 65 33.5 65C34.0938 65 34.6836 64.9836 35.269 64.9512L35.3794 66.9482ZM27.8858 66.5316L28.2185 64.5595C27.0473 64.3619 25.8982 64.0996 24.7751 63.7766L24.2222 65.6987C25.4174 66.0424 26.6399 66.3214 27.8858 66.5316ZM20.6766 64.458L21.4427 62.6105C20.3501 62.1575 19.2885 61.6446 18.2617 61.0759L17.2927 62.8255C18.3848 63.4304 19.5142 63.976 20.6766 64.458ZM14.1132 60.8236L15.2719 59.1935C14.3101 58.5098 13.3882 57.7734 12.5105 56.9885L11.1773 58.4794C12.1104 59.3138 13.0905 60.0967 14.1132 60.8236ZM8.52063 55.8227L10.0115 54.4895C9.22655 53.6118 8.49017 52.6899 7.8065 51.7281L6.17636 52.8868C6.90329 53.9095 7.6862 54.8896 8.52063 55.8227ZM4.17447 49.7073L5.92405 48.7383C5.3554 47.7115 4.84252 46.6499 4.38945 45.5573L2.542 46.3234C3.02404 47.4858 3.56964 48.6152 4.17447 49.7073ZM1.30134 42.7777L3.22342 42.2249C2.90037 41.1017 2.63813 39.9527 2.4405 38.7815L0.46838 39.1142C0.678603 40.3601 0.957603 41.5826 1.30134 42.7777ZM0.0518293 35.3794L2.04878 35.269C2.01641 34.6836 2 34.0938 2 33.5C2 32.9062 2.01641 32.3164 2.04878 31.731L0.0518297 31.6206C0.0174284 32.2427 0 32.8693 0 33.5C0 34.1307 0.0174282 34.7573 0.0518293 35.3794ZM0.468381 27.8858L2.4405 28.2185C2.63813 27.0473 2.90038 25.8982 3.22342 24.7751L1.30134 24.2222C0.957604 25.4174 0.678604 26.6399 0.468381 27.8858ZM2.542 20.6766L4.38945 21.4427C4.84252 20.3501 5.3554 19.2885 5.92405 18.2617L4.17447 17.2927C3.56964 18.3848 3.02404 19.5142 2.542 20.6766ZM6.17636 14.1132L7.8065 15.2719C8.49017 14.3101 9.22655 13.3882 10.0115 12.5105L8.52063 11.1773C7.6862 12.1104 6.90329 13.0905 6.17636 14.1132ZM11.1773 8.52062L12.5105 10.0115C13.3882 9.22655 14.3101 8.49017 15.2719 7.8065L14.1132 6.17636C13.0905 6.90329 12.1104 7.6862 11.1773 8.52062ZM17.2927 4.17447L18.2617 5.92405C19.2885 5.3554 20.3501 4.84252 21.4427 4.38945L20.6766 2.542C19.5142 3.02404 18.3848 3.56964 17.2927 4.17447ZM24.2223 1.30134L24.7751 3.22342C25.8983 2.90037 27.0473 2.63813 28.2185 2.4405L27.8858 0.46838C26.6399 0.678602 25.4174 0.957603 24.2223 1.30134ZM31.6206 0.0518294C32.2427 0.0174282 32.8693 0 33.5 0C34.1307 0 34.7573 0.0174284 35.3794 0.0518297L35.269 2.04878C34.6836 2.01641 34.0938 2 33.5 2C32.9062 2 32.3164 2.01641 31.731 2.04878L31.6206 0.0518294ZM39.1142 0.468381L38.7815 2.4405C39.9527 2.63813 41.1018 2.90038 42.2249 3.22342L42.7778 1.30134C41.5826 0.957605 40.3601 0.678604 39.1142 0.468381ZM46.3234 2.542L45.5573 4.38945C46.6499 4.84252 47.7115 5.3554 48.7383 5.92405L49.7073 4.17447C48.6152 3.56964 47.4858 3.02404 46.3234 2.542ZM52.8868 6.17636L51.7281 7.8065C52.6899 8.49017 53.6118 9.22655 54.4895 10.0115L55.8227 8.52063C54.8896 7.6862 53.9095 6.90329 52.8868 6.17636ZM58.4794 11.1773L56.9885 12.5105C57.7734 13.3882 58.5098 14.3101 59.1935 15.2719L60.8236 14.1132C60.0967 13.0905 59.3138 12.1104 58.4794 11.1773ZM62.8255 17.2927L61.076 18.2617C61.6446 19.2885 62.1575 20.3501 62.6105 21.4427L64.458 20.6766C63.976 19.5142 63.4304 18.3848 62.8255 17.2927ZM65.6987 24.2223L63.7766 24.7751C64.0996 25.8983 64.3619 27.0473 64.5595 28.2185L66.5316 27.8858C66.3214 26.6399 66.0424 25.4174 65.6987 24.2223ZM66.9482 31.6206L64.9512 31.731C64.9836 32.3164 65 32.9062 65 33.5C65 34.0938 64.9836 34.6836 64.9512 35.269L66.9482 35.3794C66.9826 34.7573 67 34.1307 67 33.5C67 32.8693 66.9826 32.2427 66.9482 31.6206ZM66.5316 39.1142L64.5595 38.7815C64.3619 39.9527 64.0996 41.1018 63.7766 42.2249L65.6987 42.7778C66.0424 41.5826 66.3214 40.3601 66.5316 39.1142ZM64.458 46.3234L62.6105 45.5573C62.1575 46.6499 61.6446 47.7115 61.0759 48.7383L62.8255 49.7073C63.4304 48.6152 63.976 47.4858 64.458 46.3234ZM60.8236 52.8868L59.1935 51.7281C58.5098 52.6899 57.7734 53.6118 56.9885 54.4895L58.4794 55.8227C59.3138 54.8896 60.0967 53.9095 60.8236 52.8868ZM55.8227 58.4794L54.4895 56.9885C53.6118 57.7734 52.6899 58.5098 51.7281 59.1935L52.8868 60.8236C53.9095 60.0967 54.8896 59.3138 55.8227 58.4794ZM49.7073 62.8255L48.7383 61.076C47.7115 61.6446 46.6499 62.1575 45.5573 62.6105L46.3234 64.458C47.4858 63.976 48.6152 63.4304 49.7073 62.8255ZM42.7777 65.6987L42.2249 63.7766C41.1017 64.0996 39.9527 64.3619 38.7815 64.5595L39.1142 66.5316C40.3601 66.3214 41.5826 66.0424 42.7777 65.6987Z" fill="#F0F2FF"/>
</svg>
