<svg width="918" height="459" viewBox="0 0 918 459" fill="none" xmlns="http://www.w3.org/2000/svg">
<g opacity="0.4" filter="url(#filter0_f_2_80)">
<path d="M12.8658 205.314C12.8658 205.314 230.459 409.916 415.378 360.738C600.398 311.568 518.846 -76.8299 887.164 19.5185M13.1257 202.279C13.1257 202.279 226.637 410.607 410.821 362.895C595.096 315.292 507.106 -76.3067 888.473 24.4199M13.2846 199.236C13.2846 199.236 222.622 411.181 406.254 365.154C589.786 319.118 495.569 -75.7661 889.773 29.4226M13.5445 196.201C13.5445 196.201 218.8 411.873 401.688 367.412C584.576 322.951 483.922 -75.1329 891.073 34.4253M13.7034 193.158C13.7034 193.158 214.776 412.547 397.03 369.561C579.283 326.574 472.292 -74.702 892.282 39.3182M13.972 190.021C13.972 190.021 210.963 413.137 392.472 371.717C574.082 330.306 460.553 -74.1799 893.591 44.2186M14.1309 186.978C14.1309 186.978 206.939 413.812 387.906 373.976C568.772 334.132 449.015 -73.6383 894.891 49.2221M14.3908 183.943C14.3908 183.943 203.118 414.503 383.34 376.234C563.562 337.965 437.368 -73.0058 896.183 54.3253M14.5498 180.9C14.5498 180.9 199.094 415.178 378.682 378.383C558.261 341.689 425.738 -72.5751 897.391 59.2181M14.8096 177.866C14.8096 177.866 195.272 415.87 374.115 380.642C552.959 345.414 413.998 -72.0511 898.691 64.2215M14.968 174.822C14.968 174.822 191.248 416.545 369.549 382.9C547.749 349.247 402.452 -71.4096 899.991 69.2239M15.2366 171.686C15.2366 171.686 187.435 417.135 364.991 385.057C542.548 352.979 390.822 -70.9792 901.3 74.125M15.3956 168.642C15.3956 168.642 183.411 417.809 360.333 387.205C537.246 356.703 379.083 -70.4564 902.508 79.0173M15.5545 165.599C15.5545 165.599 179.488 418.492 355.666 389.455C531.835 360.52 367.444 -69.9242 903.708 84.0116M15.8144 162.564C15.8144 162.564 175.565 419.175 351.2 391.722C526.735 364.261 355.898 -69.2826 905.109 89.0227M15.9733 159.521C15.9733 159.521 171.642 419.859 346.542 393.871C521.433 367.985 344.167 -68.86 906.317 93.916M16.2331 156.487C16.2331 156.487 167.72 420.543 341.976 396.131C516.223 371.82 332.529 -68.3275 907.517 98.9106M16.4008 153.342C16.4008 153.342 163.814 421.023 337.317 398.279C510.82 375.535 320.89 -67.7959 908.725 103.803M16.6606 150.307C16.6606 150.307 159.891 421.706 332.852 400.546C505.721 379.276 309.352 -67.2554 910.118 108.915M16.8196 147.263C16.8196 147.263 155.969 422.389 328.194 402.694C500.419 383 297.613 -66.7325 911.326 113.808M17.0794 144.229C17.0794 144.229 152.046 423.072 323.627 404.953C495.209 386.834 285.975 -66.2001 912.626 118.811M17.2384 141.185C17.2384 141.185 148.123 423.755 318.96 407.202C489.907 390.557 274.336 -65.6686 913.935 123.712M4.14889 304.736C4.14889 304.736 198.644 482.19 361.19 349.881C523.737 217.573 670.687 -29.4874 876.025 77.1572M5.82368 311.299C5.82368 311.299 198.513 483.707 360.056 348.867C521.499 214.018 675.529 -20.7171 877.342 85.5239M7.50783 317.761C7.50783 317.761 198.3 485.014 358.822 347.844C519.252 210.565 680.27 -11.9553 878.558 93.8819M9.19195 324.223C9.19195 324.223 198.179 486.43 357.698 346.729C517.006 207.112 685.112 -3.18444 879.784 102.139M10.766 330.777C10.766 330.777 197.956 487.837 356.353 345.798C514.86 203.667 689.853 5.57708 881 110.497M12.4495 337.24C12.4495 337.24 197.843 489.153 355.228 344.684C512.512 200.206 694.695 14.3481 882.216 118.856M14.1338 343.701C14.1338 343.701 197.723 490.569 353.994 343.66C510.367 196.76 699.428 23.2104 883.433 127.213M15.8092 350.265C15.8092 350.265 197.601 491.985 352.861 342.647C508.12 193.308 704.27 31.9815 884.75 135.58M17.4928 356.727C17.4928 356.727 197.48 493.402 351.626 341.624C505.874 189.855 709.011 40.7434 885.967 143.939M19.0761 363.18C19.0761 363.18 197.166 494.699 350.401 340.499C503.627 186.401 713.853 49.5132 887.183 152.296M20.751 369.743C20.751 369.743 197.044 496.115 349.157 339.577C501.271 183.04 718.585 58.3763 888.29 160.747M22.4345 376.206C22.4345 376.206 196.923 497.532 348.032 338.463C499.133 179.495 723.427 67.1473 889.616 169.013M24.1187 382.667C24.1187 382.667 196.81 498.846 346.899 337.448C496.887 176.041 728.278 75.8162 890.933 177.379M25.7942 389.231C25.7942 389.231 196.689 500.263 345.665 336.426C494.641 172.588 733.011 84.6795 892.15 185.738M27.3769 395.684C27.3769 395.684 196.467 501.67 344.43 335.402C492.394 169.134 737.853 93.4494 893.366 194.095M29.0604 402.147C29.0604 402.147 196.354 502.986 343.204 334.279C490.055 165.573 742.602 102.111 894.591 202.353M30.7359 408.71C30.7359 408.71 196.123 504.494 342.062 333.366C487.901 162.229 747.427 111.084 895.799 210.812M32.4202 415.171C32.4202 415.171 196.011 505.808 340.837 332.241C485.654 158.775 752.168 119.845 897.016 219.169M34.1037 421.633C34.1037 421.633 195.898 507.124 339.703 331.228C483.407 155.322 757.12 128.523 898.333 227.537M35.7786 428.197C35.7786 428.197 195.768 508.642 338.468 330.205C481.16 151.869 761.852 137.387 899.549 235.895M37.3618 434.651C37.3618 434.651 195.554 509.949 337.234 329.183C478.914 148.416 766.593 146.149 900.766 244.254M39.046 441.112C39.046 441.112 195.433 511.364 336.009 328.058C476.676 144.861 771.343 154.809 901.991 252.51" stroke="#BA0000" stroke-opacity="0.8" stroke-width="0.4414" stroke-miterlimit="10"/>
</g>
<defs>
<filter id="filter0_f_2_80" x="0" y="0" width="918" height="458.561" filterUnits="userSpaceOnUse" color-interpolation-filters="sRGB">
<feFlood flood-opacity="0" result="BackgroundImageFix"/>
<feBlend mode="normal" in="SourceGraphic" in2="BackgroundImageFix" result="shape"/>
<feGaussianBlur stdDeviation="2" result="effect1_foregroundBlur_2_80"/>
</filter>
</defs>
</svg>
